<?xml version="1.0" encoding="UTF-8"?>
<svg id="_레이어_2" data-name="레이어 2" xmlns="http://www.w3.org/2000/svg" viewBox="0 0 415.85 117.61">
  <defs>
    <style>
      .cls-1 {
        fill: #1f1f21;
      }
    </style>
  </defs>
  <g id="_레이어_1-2" data-name="레이어 1">
    <g>
      <path class="cls-1" d="M26.42,59.67l-7.04,2.35s-7.65,6.02-12.45,6.02c-3.67,0-6.53-2.86-6.53-5.51,0-1.33-.41-2.65-.41-4.08,0-.51.1-1.02.2-1.63l1.53-7.55,1.22-2.14,2.14-14.79.82-2.75v-5.61l.71-2.04.61-7.24,1.53-5.81.51-1.63.31-3.47,1.33-1.33.92-1.84,3.16-.61,1.73.51,1.53-.51s11.02,2.45,15.91,5.1c8.36,5,15.2,15.1,15.2,23.05,0,11.93-9.49,27.03-22.95,31.52ZM17.65,7.45c-1.02,0-3.88,4.08-3.88,4.08v2.75l-1.43,6.73-.31,3.98-1.43,6.12.31,2.45-2.24,15.3c-.41,2.24-.71,4.69-.71,6.63,0,2.45.51,4.18,2.35,4.39,1.12.1,7.75-3.57,7.75-3.57,0,0,6.73-2.96,10.61-5.51,3.37-2.14,7.96-6.02,7.96-6.02l1.53-4.69,1.53-1.63.92-2.86s2.35-3.26,2.35-4.79c0-13.16-11.22-23.36-25.3-23.36Z"/>
      <path class="cls-1" d="M98.02,47.64c-5.61,0-12.34-2.04-16.63-2.04s-6.53,2.04-6.53,4.28c0,.82.31,1.73.92,2.55,3.06,4.69,10.71,8.57,10.71,8.57l3.37,1.02,2.65.2,1.33,1.33,1.73,1.43.2,3.37-1.02,1.02-.82,1.33s-1.33.61-1.94.61c-4.59,0-11.02-4.18-11.02-4.18l-3.57-2.14-.82-1.73-5.71-7.04s-1.43-2.75-1.43-4.59c0-1.94.82-4.9.82-4.9l.2-6.12c0-1.22,1.22-6.22,1.22-6.22,0,0,4.69-5.41,7.85-7.65,2.35-1.53,5-2.35,5-2.35l2.24-1.02,5.2-.51c7.75,0,12.24,6.83,12.24,17.75,0,3.67-2.65,7.04-6.22,7.04ZM93.12,29.48c-.71-.31-1.73-.41-2.55-.41s-1.53.1-1.53.1l-2.45,1.73-3.06.2s-4.28,2.86-4.28,4.9c0,1.12.82,2.45,2.04,3.37.41.31.71.41,1.12.41.92,0,1.84-.61,2.96-.61.31,0,.51,0,.82.1l2.86.92,2.75-.31c5.61-.82,6.73-1.43,6.73-4.59,0-2.96-2.55-4.79-5.41-5.81Z"/>
      <path class="cls-1" d="M151.06,35.6l-4.18-5.1-2.24-1.02s-7.96.61-7.96,5.92c0,1.63.82,2.86,2.35,3.67l5.92,2.75,1.43,1.94,2.35,1.12,1.73,4.59s.92,4.28.92,5.51c0,5.2-1.94,7.96-1.94,7.96l-.92,2.55-5.51,3.06s-2.96,2.45-7.75,2.45c-4.28,0-10.51-1.94-15.71-4.39-1.63-.92-3.67-3.06-3.67-5.41,0-1.02,2.24-2.14,2.24-2.14l2.35.51h2.35l4.49,2.45,2.45.1s4.39,1.63,6.12,1.63c3.57,0,10-4.49,10-9.08,0-1.94-1.53-3.88-4.39-6.32-6.94-6.02-10.71-5.81-10.71-10.81,0-6.12,2.04-9.38,2.04-9.38l3.26-3.06,2.65-.61s4.49-1.12,6.53-1.12c4.28,0,9.59,4.49,9.59,6.94,0,5.3-3.77,5.3-3.77,5.3Z"/>
      <path class="cls-1" d="M181.25,10.51h-.51c-1.33,0-2.65-.31-3.06-1.12l-1.22-2.04.51-2.86,2.45-2.45,1.33-2.04,2.14.2c1.73.31,2.65,1.22,2.65,3.47,0,3.88-2.24,6.73-4.28,6.83ZM185.53,32.54l.61,11.73-.51,2.35s-1.02,3.67-1.02,6.12c0,2.65.92,6.83.92,6.83l-.51,2.14c-.51,2.04-1.94,3.88-3.57,3.88-2.04,0-2.55-1.33-2.55-4.08,0-.71.61-2.55.61-4.08l-.31-6.63s-.61-5.81-.61-11.42c0-3.37.2-6.63.92-8.57l.92-2.75,1.02-2.96c.41-1.02,1.63-2.14,2.65-2.14,1.63,0,1.73,2.65,1.73,2.65l.51,1.63-.82,5.3Z"/>
      <path class="cls-1" d="M248.16,48.66c0,1.12-.1,1.73-.71,2.65l-3.26,4.49c-.2.2-1.53.92-3.67,1.63-1.02.51-3.26,1.84-4.39,1.84h-.1l-8.26-.71h-.2c-2.65,0-3.57,3.98-3.57,7.85v1.02l.41,6.53c.1,2.35,1.22,3.06,2.55,3.67l2.04.82c.31.41,1.22,1.43,2.75,2.96,9.89,8.16,12.34,10.91,12.34,18.77,0,11.22-8.26,17.44-21.83,17.44-9.49,0-15.71-5.61-15.71-5.61l-6.32-5.71-.71-3.47s-1.02-3.47-1.02-6.53c0-8.77,3.98-14.49,11.32-16.93l7.75-3.98.41-3.57-.1-2.75.71-3.98-.1-2.45.71-4.39v-.2c0-2.04-4.49-5.92-5.1-6.43l-4.18-5.92-1.02-6.02.92-4.9,1.33-1.33.61-1.33,3.26-3.47c3.06-3.67,6.22-5.51,10.92-5.51,1.22,0,8.16,2.96,8.16,2.96l6.22,1.84c4.28,1.22,7.85,10.61,7.85,19.69v1.02ZM236.53,98.64v-2.86c-.1-2.96-12.85-12.85-16.22-12.85s-9.69,3.98-10.3,4.49l-1.43,1.43c0,.1-2.55,2.24-3.16,2.96l-.82,3.47c.31,1.73,1.53,9.28,6.02,11.83,4.79,3.06,9.59,3.98,13.46,3.98,6.02,0,13.36-4.08,13.36-8.16,0-.31,0-.51-.1-.82l-.82-3.47ZM233.68,31.83l-1.63-.51-2.55.31-2.24-1.02-1.63-.51c-.31-.1-.71-.2-1.02-.2-3.47,0-7.85,6.43-7.85,10.1,0,6.02,7.14,12.34,16.01,12.34,5.71,0,8.67-3.37,8.67-8.26,0-5.51-3.57-11.12-7.75-12.24Z"/>
      <path class="cls-1" d="M305.89,50.9l-.31,4.79v.61c0,1.84.31,4.79.31,4.79l-1.84,1.63-1.33,1.53s-3.88-.1-3.88-2.24v-.1l.2-3.16-.51-3.16.61-5.51v-8.57c0-1.12-1.63-8.47-7.45-8.47-3.88,0-8.47,3.57-8.47,3.57l-1.63,2.04-3.67,2.86s-1.33,2.86-2.45,4.69c-.92,1.63-1.22,5.1-1.22,7.34,0,5.1,1.22,4.59,1.22,8.87,0,2.24-.92,5.92-3.67,5.92-1.53,0-3.16-2.55-3.16-2.55l.41-4.69-.41-3.57.71-5.61-.51-17.65.82-3.77-.2-3.26.92-1.12.82-1.63s4.39.51,4.28,1.63l-.31,3.98v.41c0,.82.51,1.73,2.24,1.73,1.63,0,4.49-2.96,4.49-2.96l2.45-1.12s3.37-2.75,7.75-2.75c3.57,0,6.73,2.04,10.1,6.73,2.14,2.86,3.26,5.1,3.26,6.43v2.35l.71,3.67-.31,6.32Z"/>
      <path class="cls-1" d="M357.61,47.64c-5.61,0-12.34-2.04-16.63-2.04s-6.53,2.04-6.53,4.28c0,.82.31,1.73.92,2.55,3.06,4.69,10.71,8.57,10.71,8.57l3.37,1.02,2.65.2,1.33,1.33,1.73,1.43.2,3.37-1.02,1.02-.82,1.33s-1.33.61-1.94.61c-4.59,0-11.02-4.18-11.02-4.18l-3.57-2.14-.82-1.73-5.71-7.04s-1.43-2.75-1.43-4.59c0-1.94.82-4.9.82-4.9l.2-6.12c0-1.22,1.22-6.22,1.22-6.22,0,0,4.69-5.41,7.85-7.65,2.35-1.53,5-2.35,5-2.35l2.24-1.02,5.2-.51c7.75,0,12.24,6.83,12.24,17.75,0,3.67-2.65,7.04-6.22,7.04ZM352.71,29.48c-.71-.31-1.73-.41-2.55-.41s-1.53.1-1.53.1l-2.45,1.73-3.06.2s-4.28,2.86-4.28,4.9c0,1.12.82,2.45,2.04,3.37.41.31.71.41,1.12.41.92,0,1.84-.61,2.96-.61.31,0,.51,0,.82.1l2.86.92,2.75-.31c5.61-.82,6.73-1.43,6.73-4.59,0-2.96-2.55-4.79-5.41-5.81Z"/>
      <path class="cls-1" d="M409.52,29.38c-8.67,1.84-11.83,6.83-11.83,6.83l-.51,3.06-2.14,5.1s-.41,1.22-.41,4.18c0,5.2,1.73,9.59,1.73,11.53,0,2.24-1.12,6.32-3.67,6.32-1.02,0-1.63-1.63-2.14-2.86l-.92-2.65-1.12-2.14.2-6.12-.41-1.94.1-3.88-.31-2.55.82-4.79-.51-7.65-1.12-5.81-.41-6.73v-.2c0-1.53,1.12-2.96,3.06-2.96,1.02,0,2.65,1.22,2.65,2.24v.92l.71,2.45v1.84l.31,1.02c.71,1.73,2.04,3.26,3.57,3.26h.41c5-.71,6.32-6.53,11.63-6.53,3.57,0,6.63,1.33,6.63,3.26,0,2.04-2.86,4.08-6.32,4.79Z"/>
    </g>
  </g>
</svg>