<?xml version="1.0" encoding="UTF-8"?>
<svg id="_레이어_2" data-name="레이어 2" xmlns="http://www.w3.org/2000/svg" viewBox="0 0 519.58 74.77">
  <defs>
    <style>
      .cls-1 {
        fill: #1f1f21;
      }
    </style>
  </defs>
  <g id="_레이어_1-2" data-name="레이어 1">
    <g>
      <path class="cls-1" d="M36.21,29.58l-6.94,6.12c-.82.71-1.12,1.33-1.12,1.94,0,.31.1.71.31,1.12l6.12,13.87,3.67,4.39c.41.41.51,1.12.51,1.94,0,2.86-1.84,7.14-3.57,7.14-.82,0-1.84-1.73-2.55-2.96l-3.26-5.71-1.02-3.88-2.75-3.06-.71-2.35-3.06-6.22c-.82-1.73-1.22-2.24-2.75-2.24-1.22,0-4.49,2.14-4.49,2.14l-2.55.2c-2.04.31-4.18,4.59-4.18,7.14v.31l1.33,15.71.1,4.08c0,1.22-2.24,5.51-4.59,5.51-1.12,0-2.04-2.04-2.04-3.26l-.41-21.62-.71-5.41v-3.26l-.61-6.12.61-2.45-.71-7.85-.82-5,.31-1.94-.31-9.18v-.2C0,5,3.26,1.33,5.1,1.22l11.32-.92,5.61-.31,2.55,1.43,5.41,1.84,1.84,2.14s8.57,7.75,8.57,16.12c0,3.16-1.53,5.61-4.18,8.06ZM31.42,15.3l-3.77-4.39c-1.53-1.84-2.96-3.57-5-3.57-.31,0-.61,0-.92.1l-3.47.82-4.18-.41c-.41,0-.82-.1-1.12-.1-3.57,0-6.53,2.24-6.63,3.98l-.1,2.55,1.84,12.85.41,5.61c.1,1.43.92,3.16,1.84,3.16,1.84,0,8.98-5.1,8.98-5.1l2.86-.3,6.94-3.26s5.2-3.88,5.2-5.71c0-1.63-1.12-4.29-2.86-6.22Z"/>
      <path class="cls-1" d="M88.64,48.66c-5.61,0-12.34-2.04-16.63-2.04s-6.53,2.04-6.53,4.28c0,.82.31,1.73.92,2.55,3.06,4.69,10.71,8.57,10.71,8.57l3.37,1.02,2.65.2,1.33,1.33,1.73,1.43.2,3.37-1.02,1.02-.82,1.33s-1.33.61-1.94.61c-4.59,0-11.02-4.18-11.02-4.18l-3.57-2.14-.82-1.73-5.71-7.04s-1.43-2.75-1.43-4.59c0-1.94.82-4.9.82-4.9l.2-6.12c0-1.22,1.22-6.22,1.22-6.22,0,0,4.69-5.41,7.85-7.65,2.35-1.53,5-2.35,5-2.35l2.24-1.02,5.2-.51c7.75,0,12.24,6.83,12.24,17.75,0,3.67-2.65,7.04-6.22,7.04ZM83.74,30.5c-.71-.31-1.73-.41-2.55-.41s-1.53.1-1.53.1l-2.45,1.73-3.06.2s-4.28,2.86-4.28,4.9c0,1.12.82,2.45,2.04,3.37.41.31.71.41,1.12.41.92,0,1.84-.61,2.96-.61.31,0,.51,0,.82.1l2.86.92,2.75-.31c5.61-.82,6.73-1.43,6.73-4.59,0-2.96-2.55-4.79-5.41-5.81Z"/>
      <path class="cls-1" d="M141.68,36.62l-4.18-5.1-2.24-1.02s-7.96.61-7.96,5.92c0,1.63.82,2.86,2.35,3.67l5.92,2.75,1.43,1.94,2.35,1.12,1.73,4.59s.92,4.28.92,5.51c0,5.2-1.94,7.96-1.94,7.96l-.92,2.55-5.51,3.06s-2.96,2.45-7.75,2.45c-4.28,0-10.51-1.94-15.71-4.39-1.63-.92-3.67-3.06-3.67-5.41,0-1.02,2.24-2.14,2.24-2.14l2.35.51h2.35l4.49,2.45,2.45.1s4.39,1.63,6.12,1.63c3.57,0,10-4.49,10-9.08,0-1.94-1.53-3.88-4.39-6.32-6.94-6.02-10.71-5.81-10.71-10.81,0-6.12,2.04-9.38,2.04-9.38l3.26-3.06,2.65-.61s4.49-1.12,6.53-1.12c4.28,0,9.59,4.49,9.59,6.94,0,5.3-3.77,5.3-3.77,5.3Z"/>
      <path class="cls-1" d="M193.8,48.66c-5.61,0-12.34-2.04-16.63-2.04s-6.53,2.04-6.53,4.28c0,.82.31,1.73.92,2.55,3.06,4.69,10.71,8.57,10.71,8.57l3.37,1.02,2.65.2,1.33,1.33,1.73,1.43.2,3.37-1.02,1.02-.82,1.33s-1.33.61-1.94.61c-4.59,0-11.02-4.18-11.02-4.18l-3.57-2.14-.82-1.73-5.71-7.04s-1.43-2.75-1.43-4.59c0-1.94.82-4.9.82-4.9l.2-6.12c0-1.22,1.22-6.22,1.22-6.22,0,0,4.69-5.41,7.85-7.65,2.35-1.53,5-2.35,5-2.35l2.24-1.02,5.2-.51c7.75,0,12.24,6.83,12.24,17.75,0,3.67-2.65,7.04-6.22,7.04ZM188.9,30.5c-.71-.31-1.73-.41-2.55-.41s-1.53.1-1.53.1l-2.45,1.73-3.06.2s-4.28,2.86-4.28,4.9c0,1.12.82,2.45,2.04,3.37.41.31.71.41,1.12.41.92,0,1.84-.61,2.96-.61.31,0,.51,0,.82.1l2.86.92,2.75-.31c5.61-.82,6.73-1.43,6.73-4.59,0-2.96-2.55-4.79-5.41-5.81Z"/>
      <path class="cls-1" d="M253.37,66.3c-.31.1-.61.2-1.02.2-.92,0-1.73-.31-1.73-.31l-4.08-3.06-8.16,1.73c-3.16.71-6.12.92-8.57.92-3.77,0-5.51-3.26-7.75-6.32-2.04-2.55-3.67-5.51-3.67-7.24,0-9.38,6.73-17.44,6.73-17.44l2.45-3.67,1.84-.82s2.55-1.84,5.1-1.84c1.84,0,4.49,1.43,6.22,1.43.51,0,.92-.1,1.22-.41l1.94-2.04s.92-.41,1.73-.41c1.84,0,4.28,5.61,4.79,9.89l.51,4.39,2.14,9.59v4.49l1.53,3.67s0,6.73-1.22,7.24ZM245,45.29l-2.14-3.47-.92-1.94s-3.67-2.55-7.45-2.55c-5.1,0-10.92,5.51-10.92,11.63,0,1.84,1.53,5.1,1.53,5.1l2.75,2.14,1.73,1.53s2.55,1.33,3.67,1.33c7.45,0,12.45-3.88,12.45-10.4,0-1.43-.71-3.37-.71-3.37Z"/>
      <path class="cls-1" d="M300.59,30.4c-8.67,1.84-11.83,6.83-11.83,6.83l-.51,3.06-2.14,5.1s-.41,1.22-.41,4.18c0,5.2,1.73,9.59,1.73,11.53,0,2.24-1.12,6.33-3.67,6.33-1.02,0-1.63-1.63-2.14-2.86l-.92-2.65-1.12-2.14.2-6.12-.41-1.94.1-3.88-.31-2.55.82-4.79-.51-7.65-1.12-5.81-.41-6.73v-.2c0-1.53,1.12-2.96,3.06-2.96,1.02,0,2.65,1.22,2.65,2.24v.92l.71,2.45v1.84l.31,1.02c.71,1.73,2.04,3.26,3.57,3.26h.41c5-.71,6.32-6.53,11.63-6.53,3.57,0,6.63,1.33,6.63,3.26,0,2.04-2.86,4.08-6.32,4.79Z"/>
      <path class="cls-1" d="M350.67,37.84l-2.75-3.47-3.88-2.24-2.65.51-1.84-.1-2.24,1.02-2.65,1.02s-6.43,7.24-6.43,15.61c0,6.02,6.02,8.77,6.02,8.77l14.69-.71h.1c1.63,0,3.57,1.84,3.57,3.47,0,1.33-2.04,2.24-4.79,3.37-1.53.71-3.16,1.53-4.49,1.53-1.02,0-5.41-1.02-5.41-1.02l-3.77-.1c-3.37-.1-4.39-1.84-7.24-4.28l-3.57-3.06-.2-2.45-1.12-4.59.41-2.45.1-2.55,3.06-10.1c.61-2.24,7.04-7.14,7.04-7.14l2.75-1.94h2.04s1.94-.51,3.16-.51c6.43,0,13.26,3.67,13.26,6.53v3.67l-3.16,1.22Z"/>
      <path class="cls-1" d="M411.97,65.59c0,3.47-2.14,7.45-5,7.45-1.12,0-2.35-1.33-2.35-2.55,0-4.39,1.53-13.46,1.53-13.46l-.61-3.16-.2-3.98-.41-2.45c-.82-3.88-5.2-7.45-9.59-7.45-.51,0-1.22-.1-2.04-.1-1.63,0-3.77.31-5.3,1.63-3.06,2.75-5.1,5.92-5.1,5.92v3.26l-1.43,6.22-.82,12.75c-.1,1.43-1.12,2.65-2.55,2.65-2.24,0-2.86-1.12-2.86-4.39v-3.98l.51-2.04-.1-5.71.51-4.9-.41-2.24.82-17.54c.2-3.06.41-6.12.41-9.38s-.61-6.63-.61-10.81v-1.33c0-3.98.2-8.87,3.47-8.87,1.43,0,2.86,2.55,3.06,3.98l.2,2.14-.51,2.04.51,2.96-.1,2.55s-.71,6.53-.71,11.63c0,2.55.31,6.53.31,6.53l.51,2.86,2.96.31,3.26-2.14,2.96-.82,3.88-1.22,2.75,1.02s6.43.1,9.69,8.88c1.63,4.69,2.75,11.32,3.16,18.26l.2,5.3v.2Z"/>
      <path class="cls-1" d="M461.34,48.66c-5.61,0-12.34-2.04-16.63-2.04s-6.53,2.04-6.53,4.28c0,.82.31,1.73.92,2.55,3.06,4.69,10.71,8.57,10.71,8.57l3.37,1.02,2.65.2,1.33,1.33,1.73,1.43.2,3.37-1.02,1.02-.82,1.33s-1.33.61-1.94.61c-4.59,0-11.02-4.18-11.02-4.18l-3.57-2.14-.82-1.73-5.71-7.04s-1.43-2.75-1.43-4.59c0-1.94.82-4.9.82-4.9l.2-6.12c0-1.22,1.22-6.22,1.22-6.22,0,0,4.69-5.41,7.85-7.65,2.35-1.53,5-2.35,5-2.35l2.24-1.02,5.2-.51c7.75,0,12.24,6.83,12.24,17.75,0,3.67-2.65,7.04-6.22,7.04ZM456.44,30.5c-.71-.31-1.73-.41-2.55-.41s-1.53.1-1.53.1l-2.45,1.73-3.06.2s-4.28,2.86-4.28,4.9c0,1.12.82,2.45,2.04,3.37.41.31.71.41,1.12.41.92,0,1.84-.61,2.96-.61.31,0,.51,0,.82.1l2.86.92,2.75-.31c5.61-.82,6.73-1.43,6.73-4.59,0-2.96-2.55-4.79-5.41-5.81Z"/>
      <path class="cls-1" d="M513.25,30.4c-8.67,1.84-11.83,6.83-11.83,6.83l-.51,3.06-2.14,5.1s-.41,1.22-.41,4.18c0,5.2,1.73,9.59,1.73,11.53,0,2.24-1.12,6.33-3.67,6.33-1.02,0-1.63-1.63-2.14-2.86l-.92-2.65-1.12-2.14.2-6.12-.41-1.94.1-3.88-.31-2.55.82-4.79-.51-7.65-1.12-5.81-.41-6.73v-.2c0-1.53,1.12-2.96,3.06-2.96,1.02,0,2.65,1.22,2.65,2.24v.92l.71,2.45v1.84l.31,1.02c.71,1.73,2.04,3.26,3.57,3.26h.41c5-.71,6.32-6.53,11.63-6.53,3.57,0,6.63,1.33,6.63,3.26,0,2.04-2.86,4.08-6.32,4.79Z"/>
    </g>
  </g>
</svg>