<?xml version="1.0" encoding="UTF-8"?>
<svg id="_레이어_2" data-name="레이어 2" xmlns="http://www.w3.org/2000/svg" viewBox="0 0 444.59 87.9">
  <defs>
    <style>
      .cls-1 {
        fill: #191919;
      }
    </style>
  </defs>
  <g id="_레이어_1-2" data-name="레이어 1">
    <g>
      <path class="cls-1" d="M57.22,14.55c-.6,2.78-1.73,5.25-5.02,10.05-2.7,3.6-5.18,8.4-6.75,13.35-1.43,4.35-3.9,7.95-5.78,7.95-.38,0-1.5-1.65-1.5-1.65,0,0-.3-1.73-1.65-4.88-.52-1.28-.9-2.1-1.2-3.6-.22-1.73-1.2-2.92-1.95-4.88-1.2-3.08-.9-6.6-2.55-7.95-.6-.52-1.8-.52-1.8-.52l-.68.97-1.35,1.65-.75,3.07s-2.78,4.05-4.28,7.88c-1.95,4.72-4.8,10.2-6.6,10.2-.9,0-1.95-.97-2.1-2.17l-.15-1.88c-.3-2.85-1.8-4.12-2.77-6.82-1.12-3.08-1.35-5.03-2.48-8.1-1.5-4.35-4.65-10.8-4.65-10.8L.6,12v-2.1s-.6-1.58-.6-2.25c0-.9.9-1.5,2.02-1.5,2.4,0,4.35,2.7,6.6,8.55l.98,2.62.75,1.05.38,3.07.97,1.88.9,2.55c1.72,4.88,2.92,8.1,3.97,8.1,1.12,0,2.77-3.15,5.02-8.1.45-1.2,2.47-4.42,4.5-9,.22-.67.97-2.78.97-2.78l.83-1.12.15-2.62s.67-.53.75-1.2c.52-3.45,1.35-3.97,4.05-3.97.6,0,1.8,1.95,1.88,3.6l.38,7.72c0,2.17,1.42,7.72,1.88,8.47,1.65,2.47,1.5,7.8,4.12,7.8,3.07,0,2.17-2.25,3.15-3.83l2.62-4.2,1.05-3,1.05-1.28,1.57-4.27,1.35-1.42,1.35-2.7c.75-1.35,1.35-2.85,3-2.92,1.28,0,2.85.67,2.85,1.5,0,.9-1.5,2.32-1.88,3.9Z"/>
      <path class="cls-1" d="M84.6,48.97c-6.08,0-10.8-3.15-10.8-3.15l-1.95-.9-1.8-3.3s-1.88-3.83-1.88-7.05c0-5.92,6.3-14.47,14.17-14.47.9,0,2.77.45,2.77.45l1.5.97,2.55,1.2.83,1.28s7.27,6.3,7.27,11.1c0,6.15-9.07,13.88-12.67,13.88ZM92.32,32.32l-1.35-1.42-1.2-.6-2.55-3.15-3.15-.83-1.95-.75s-9.82,1.65-9.82,9.75c0,4.88,6.83,7.88,11.17,7.88,3,0,9.52-2.93,9.52-7.28,0-.3,0-.52-.07-.83l-.6-2.77Z"/>
      <path class="cls-1" d="M124.95,48.97c-6.08,0-10.8-3.15-10.8-3.15l-1.95-.9-1.8-3.3s-1.88-3.83-1.88-7.05c0-5.92,6.3-14.47,14.17-14.47.9,0,2.77.45,2.77.45l1.5.97,2.55,1.2.83,1.28s7.27,6.3,7.27,11.1c0,6.15-9.07,13.88-12.67,13.88ZM132.67,32.32l-1.35-1.42-1.2-.6-2.55-3.15-3.15-.83-1.95-.75s-9.82,1.65-9.82,9.75c0,4.88,6.83,7.88,11.17,7.88,3,0,9.52-2.93,9.52-7.28,0-.3,0-.52-.07-.83l-.6-2.77Z"/>
      <path class="cls-1" d="M158.85,36l-.07,8.77-.68,2.55.08,6.45-.45,2.33.3,2.47-.3,7.65-.67,2.47-.38,6.15c0,.97-1.88,2.55-3,2.55s-2.03-3-2.03-4.42c0-2.03,1.28-6.67,1.28-6.67l.6-6.3.75-1.95-.22-4.65.22-14.4v-2.78c0-1.35,0-2.55.3-3.67.75-3.3,1.05-4.57,1.05-4.57l-.22-1.35-.08-5.47c0-.83.75-1.35,1.65-1.35.68,0,1.43.67,1.95,1.42.22.38.38.75.38,1.2,0,.97-.45,2.33-.45,4.35,0,.38.08.83.08,1.28l.07,1.5.3,2.02-.45,4.42ZM159.3,5.4l-.45,1.12-1.72.83s-.82.07-1.2.07c-.98,0-2.85-2.62-2.85-4.87,0-1.5,1.8-2.55,3.23-2.55,1.88,0,3.6,1.65,3.6,3.37,0,.68-.6,2.03-.6,2.03Z"/>
      <path class="cls-1" d="M200.1,31.5l.08,1.95v.15c0,1.72-1.35,2.32-2.92,6.22-1.5,3.6-3.3,6.15-3.3,6.15l-2.03,1.28-2.03,1.65s-1.57-.15-2.02-.15c-5.25,0-12-8.33-12-16.12v-.22l.07-3.45-.07-2.25.75-1.42s.07-2.77,2.47-2.77c.9,0,1.72.45,1.72,1.35l-.22,10.42c0,.6,1.8,4.72,1.8,4.72l.98,1.12,1.42,1.95s1.35,1.12,3,1.12c3.68,0,4.5-4.35,4.5-4.35l2.25-2.25,1.05-3.9.08-6.9c0-.45.97-2.48,2.17-2.48.08,0,.23.08.3.08.9.15.97.98,1.5,1.65.45.6,1.05,1.5,1.05,1.5l.22,2.32-.83,2.62Z"/>
      <path class="cls-1" d="M243.97,38.85l-.22,3.53v.45c0,1.35.22,3.52.22,3.52l-1.35,1.2-.98,1.12s-2.85-.08-2.85-1.65v-.08l.15-2.32-.38-2.33.45-4.05v-6.3c0-.83-1.2-6.22-5.47-6.22-2.85,0-6.22,2.62-6.22,2.62l-1.2,1.5-2.7,2.1s-.98,2.1-1.8,3.45c-.67,1.2-.9,3.75-.9,5.4,0,3.75.9,3.38.9,6.52,0,1.65-.67,4.35-2.7,4.35-1.12,0-2.33-1.88-2.33-1.88l.3-3.45-.3-2.62.52-4.12-.38-12.97.6-2.77-.15-2.4.67-.82.6-1.2s3.22.38,3.15,1.2l-.22,2.92v.3c0,.6.38,1.27,1.65,1.27,1.2,0,3.3-2.17,3.3-2.17l1.8-.82s2.47-2.03,5.7-2.03c2.62,0,4.95,1.5,7.42,4.95,1.58,2.1,2.4,3.75,2.4,4.72v1.72l.53,2.7-.22,4.65Z"/>
      <path class="cls-1" d="M317.02,18.15c0,2.62-.45,5.78-.45,5.78l.08,2.25-.53,2.92s-1.2,5.85-1.8,7.57c-2.25,5.62-5.7,8.1-5.7,8.1l-1.42,1.8s-2.33.75-3.97.98c-1.58.3-2.33.6-4.12.6-9.22,0-14.55-3.97-14.55-11.47,0-1.42.23-2.4,1.35-2.4,1.5,0,2.7,2.85,4.2,5.17.45.75,2.1.82,2.1.82l1.35,1.2,1.58,1.12s2.17.38,2.92.38c5.47,0,8.7-1.5,10.42-5.32l1.42-3.67.97-1.35,1.05-5.62.52-8.92.6-2.33.07-9.9c0-2.7,1.5-4.8,3.6-4.8,1.2,0,1.5,1.88,1.5,3.07,0,4.05-1.2,8.55-1.2,14.02Z"/>
      <path class="cls-1" d="M355.64,31.5l.08,1.95v.15c0,1.72-1.35,2.32-2.92,6.22-1.5,3.6-3.3,6.15-3.3,6.15l-2.03,1.28-2.03,1.65s-1.57-.15-2.02-.15c-5.25,0-12-8.33-12-16.12v-.22l.07-3.45-.07-2.25.75-1.42s.07-2.77,2.47-2.77c.9,0,1.72.45,1.72,1.35l-.22,10.42c0,.6,1.8,4.72,1.8,4.72l.98,1.12,1.42,1.95s1.35,1.12,3,1.12c3.68,0,4.5-4.35,4.5-4.35l2.25-2.25,1.05-3.9.08-6.9c0-.45.97-2.48,2.17-2.48.08,0,.23.08.3.08.9.15.97.98,1.5,1.65.45.6,1.05,1.5,1.05,1.5l.22,2.32-.83,2.62Z"/>
      <path class="cls-1" d="M399.52,38.85l-.22,3.53v.45c0,1.35.22,3.52.22,3.52l-1.35,1.2-.97,1.12s-2.85-.08-2.85-1.65v-.08l.15-2.32-.38-2.33.45-4.05v-6.3c0-.83-1.2-6.22-5.47-6.22-2.85,0-6.22,2.62-6.22,2.62l-1.2,1.5-2.7,2.1s-.97,2.1-1.8,3.45c-.67,1.2-.9,3.75-.9,5.4,0,3.75.9,3.38.9,6.52,0,1.65-.67,4.35-2.7,4.35-1.12,0-2.32-1.88-2.32-1.88l.3-3.45-.3-2.62.52-4.12-.38-12.97.6-2.77-.15-2.4.67-.82.6-1.2s3.22.38,3.15,1.2l-.23,2.92v.3c0,.6.38,1.27,1.65,1.27,1.2,0,3.3-2.17,3.3-2.17l1.8-.82s2.47-2.03,5.7-2.03c2.62,0,4.95,1.5,7.43,4.95,1.57,2.1,2.4,3.75,2.4,4.72v1.72l.52,2.7-.22,4.65Z"/>
      <path class="cls-1" d="M444.59,37.2c0,.83-.08,1.27-.53,1.95l-2.4,3.3c-.15.15-1.12.67-2.7,1.2-.75.38-2.4,1.35-3.22,1.35h-.08l-6.08-.53h-.15c-1.95,0-2.62,2.92-2.62,5.77v.75l.3,4.8c.08,1.73.9,2.25,1.88,2.7l1.5.6c.22.3.9,1.05,2.03,2.18,7.27,6,9.07,8.02,9.07,13.8,0,8.25-6.07,12.82-16.05,12.82-6.97,0-11.55-4.12-11.55-4.12l-4.65-4.2-.53-2.55s-.75-2.55-.75-4.8c0-6.45,2.92-10.65,8.32-12.45l5.7-2.92.3-2.62-.08-2.03.52-2.92-.07-1.8.53-3.22v-.15c0-1.5-3.3-4.35-3.75-4.72l-3.08-4.35-.75-4.42.67-3.6.97-.97.45-.97,2.4-2.55c2.25-2.7,4.58-4.05,8.02-4.05.9,0,6,2.17,6,2.17l4.57,1.35c3.15.9,5.78,7.8,5.78,14.47v.75ZM436.04,73.95v-2.1c-.08-2.17-9.45-9.45-11.92-9.45s-7.12,2.92-7.57,3.3l-1.05,1.05c0,.08-1.88,1.65-2.32,2.17l-.6,2.55c.22,1.28,1.12,6.82,4.42,8.7,3.53,2.25,7.05,2.92,9.9,2.92,4.42,0,9.82-3,9.82-6,0-.23,0-.38-.07-.6l-.6-2.55ZM433.94,24.82l-1.2-.38-1.88.23-1.65-.75-1.2-.38c-.22-.08-.53-.15-.75-.15-2.55,0-5.78,4.72-5.78,7.42,0,4.42,5.25,9.07,11.78,9.07,4.2,0,6.37-2.47,6.37-6.07,0-4.05-2.62-8.17-5.7-9Z"/>
    </g>
  </g>
</svg>